<svg xmlns="http://www.w3.org/2000/svg" viewBox="0 0 200 200">
    <!-- Background circle -->
    <circle cx="100" cy="100" r="90" fill="#6366F1" />

    <!-- Task list container -->
    <rect x="50" y="50" width="100" height="120" rx="10" fill="white" />

    <!-- Task items with different states -->
    <rect x="60" y="70" width="80" height="10" rx="2" fill="#10B981" />
    <rect x="60" y="90" width="70" height="10" rx="2" fill="#F59E0B" />
    <rect x="60" y="110" width="80" height="10" rx="2" fill="#6366F1" />
    <rect x="60" y="130" width="60" height="10" rx="2" fill="#EC4899" />

    <!-- Checkmark for completed task -->
    <circle cx="40" cy="75" r="8" fill="#10B981" />
    <path d="M35 75 L38 78 L45 71" stroke="white" stroke-width="2" fill="none" stroke-linecap="round" stroke-linejoin="round" />

    <!-- Progress indicator -->
    <circle cx="40" cy="95" r="8" fill="#F59E0B" />
    <path d="M40 91 L40 99 M36 95 L44 95" stroke="white" stroke-width="2" fill="none" stroke-linecap="round" />

    <!-- Pending indicator -->
    <circle cx="40" cy="115" r="8" fill="#6366F1" />
    <circle cx="40" cy="115" r="4" fill="white" />

    <!-- Clock for deferred -->
    <circle cx="40" cy="135" r="8" fill="#EC4899" />
    <path d="M40 131 L40 135 L43 138" stroke="white" stroke-width="2" fill="none" stroke-linecap="round" stroke-linejoin="round" />
</svg>